<?xml version="1.0" encoding="UTF-8" standalone="no"?>
<!DOCTYPE svg PUBLIC "-//W3C//DTD SVG 20010904//EN"
              "http://www.w3.org/TR/2001/REC-SVG-20010904/DTD/svg10.dtd">

<svg xmlns="http://www.w3.org/2000/svg"
     width="9.02778in" height="9.02778in"
     viewBox="0 0 650 650">
  <path id="Selection #3"
        fill="lightgray" stroke="none" stroke-width="1"
        d="M 299.00,4.21
           C 299.00,4.21 341.00,4.21 341.00,4.21
             341.00,4.21 362.00,5.85 362.00,5.85
             394.74,9.76 427.18,18.56 457.00,32.75
             494.80,50.73 529.61,74.80 557.83,106.00
             585.23,136.30 607.15,171.75 621.58,210.00
             662.66,318.93 642.04,444.55 567.25,534.00
             542.70,563.36 513.31,587.75 480.00,606.58
             443.46,627.23 403.66,640.18 362.00,645.15
             362.00,645.15 341.00,647.00 341.00,647.00
             341.00,647.00 305.00,647.00 305.00,647.00
             305.00,647.00 295.00,646.08 295.00,646.08
             269.69,644.06 246.05,638.68 222.00,630.67
             194.05,621.35 166.11,607.20 142.00,590.28
             74.70,543.04 28.40,471.45 12.00,391.00
             5.53,359.26 5.63,337.92 6.00,306.00
             6.00,306.00 6.91,296.00 6.91,296.00
             9.01,267.32 16.28,236.90 26.42,210.00
             59.05,123.51 126.55,56.03 213.00,23.42
             232.54,16.05 254.33,10.32 275.00,7.27
             275.00,7.27 299.00,4.21 299.00,4.21 Z" />
   <path id="Selection #2"
      fill="red" stroke="none" stroke-width="1"
      d="M 300.00,0.21
         C 300.00,0.21 342.00,0.21 342.00,0.21
            369.98,0.04 411.75,9.68 438.00,19.58
            480.20,35.49 515.92,57.27 549.00,88.09
            565.08,103.07 580.55,121.90 593.02,140.00
            660.32,237.65 668.57,364.69 616.74,471.00
            574.33,558.00 491.36,622.74 397.00,643.58
            385.32,646.16 364.61,649.98 353.00,650.00
            353.00,650.00 295.00,650.00 295.00,650.00
            287.40,649.91 269.89,646.98 262.00,645.40
            239.78,640.96 218.85,634.80 198.00,625.85
            103.72,585.39 35.95,507.30 9.88,408.00
            5.48,391.23 0.03,360.06 0.00,343.00
            0.00,343.00 0.00,308.00 0.00,308.00
            0.04,285.21 7.22,250.94 13.98,229.00
            39.43,146.28 96.86,76.06 174.00,36.26
            198.52,23.61 226.04,13.38 253.00,7.42
            253.00,7.42 283.00,2.15 283.00,2.15
            283.00,2.15 300.00,0.21 300.00,0.21 Z
         M 412.00,88.00
         C 412.00,88.00 382.00,74.69 382.00,74.69
            358.17,66.20 331.90,62.91 307.00,68.21
            297.23,70.29 282.39,74.28 275.00,81.00
            286.84,79.44 304.41,78.92 315.00,85.00
            315.00,85.00 302.00,86.00 302.00,86.00
            291.21,86.05 278.19,86.55 268.00,90.47
            268.00,90.47 230.00,111.14 230.00,111.14
            230.00,111.14 192.00,124.00 192.00,124.00
            194.52,129.85 197.17,136.74 202.00,141.00
            202.00,141.00 214.00,126.00 214.00,126.00
            214.00,126.00 205.29,143.00 205.29,143.00
            204.50,146.40 206.86,149.40 208.76,152.00
            213.14,158.01 218.97,164.68 225.00,169.00
            225.69,165.56 226.36,161.91 228.51,159.04
            234.55,150.96 250.69,150.89 260.00,151.00
            264.64,151.06 272.37,151.74 275.69,155.28
            282.19,162.21 269.51,172.12 264.00,175.09
            260.69,176.87 254.76,178.41 251.00,179.37
            242.36,181.58 238.68,181.00 230.00,181.00
            230.59,193.72 238.25,201.88 245.00,212.00
            253.79,209.22 276.47,192.36 286.00,186.42
            290.87,183.40 298.34,178.18 304.00,178.00
            294.73,182.97 281.87,196.86 274.87,205.00
            252.59,230.88 227.59,270.20 234.00,306.00
            234.00,306.00 204.00,306.00 204.00,306.00
            204.00,306.00 175.00,304.00 175.00,304.00
            175.00,304.00 132.00,304.00 132.00,304.00
            127.64,304.01 122.96,303.93 119.09,306.28
            110.53,311.47 106.48,331.65 104.00,341.00
            113.26,339.26 120.48,335.28 123.00,347.00
            123.00,347.00 137.00,346.00 137.00,346.00
            138.38,353.87 142.07,348.96 149.00,351.12
            153.40,352.49 157.94,355.73 162.00,358.00
            162.00,358.00 166.00,341.00 166.00,341.00
            166.00,341.00 184.00,346.58 184.00,346.58
            184.00,346.58 233.00,359.00 233.00,359.00
            238.93,360.18 254.59,363.24 260.00,362.50
            275.89,360.33 298.80,345.10 310.00,334.00
            298.92,353.70 281.91,358.71 273.00,367.00
            273.00,367.00 293.00,377.43 293.00,377.43
            313.60,389.22 334.77,406.04 349.10,425.00
            363.77,444.41 367.84,468.94 386.00,485.91
            395.71,494.99 407.15,501.87 419.00,507.75
            425.96,511.21 435.90,514.27 440.27,521.01
            443.62,526.21 443.00,535.91 443.00,542.01
            443.00,542.01 422.00,542.01 422.00,542.01
            416.51,541.93 405.70,539.64 401.00,542.01
            396.75,544.18 394.30,548.94 392.25,553.00
            387.85,561.72 384.20,570.77 381.00,580.00
            385.88,579.60 393.75,577.65 398.00,578.13
            403.02,578.70 404.80,581.58 410.00,581.86
            414.55,582.10 420.28,579.50 424.00,579.86
            427.32,580.19 428.98,582.23 432.00,582.52
            435.04,582.81 438.61,580.71 443.00,580.18
            449.69,579.37 455.53,580.71 462.00,580.96
            467.30,581.17 473.82,580.60 476.11,574.96
            477.49,571.57 476.78,564.24 477.28,560.00
            477.28,560.00 482.28,526.00 482.28,526.00
            482.28,526.00 492.82,488.00 492.82,488.00
            493.42,481.30 489.79,478.57 485.00,474.61
            485.00,474.61 465.00,458.83 465.00,458.83
            452.92,447.95 440.65,430.45 438.15,414.00
            438.15,414.00 438.15,403.00 438.15,403.00
            438.37,371.96 476.63,357.17 477.00,326.00
            477.14,313.70 476.02,304.45 466.83,295.17
            454.34,282.56 428.59,270.61 430.10,249.00
            430.77,239.33 441.20,227.03 450.00,223.48
            453.29,222.15 456.49,221.89 460.00,222.04
            465.64,222.29 469.45,224.24 474.00,227.44
            492.04,240.10 492.37,255.67 503.00,272.00
            503.00,272.00 514.00,270.00 514.00,270.00
            510.53,273.97 505.63,275.82 505.63,279.09
            505.63,285.43 518.04,289.49 523.00,290.85
            526.93,291.93 535.08,293.79 539.00,293.51
            548.83,292.81 560.53,282.86 564.00,274.00
            560.10,274.00 554.63,274.29 551.00,273.20
            545.72,271.62 543.05,268.19 534.00,266.29
            528.07,265.04 521.70,266.06 517.56,260.94
            511.45,253.40 513.16,241.87 509.91,233.00
            502.99,214.15 481.44,202.23 462.00,202.00
            450.95,201.87 443.86,202.74 434.00,208.46
            404.38,225.64 397.98,261.87 422.29,286.83
            433.34,298.18 459.61,307.16 454.48,328.00
            453.92,330.31 452.83,332.95 451.64,335.00
            450.30,337.31 448.85,339.07 446.96,340.96
            434.26,353.65 419.79,345.32 407.00,337.60
            380.27,321.48 362.09,292.61 362.00,261.00
            374.64,275.95 385.49,301.41 405.00,309.00
            405.00,309.00 399.69,295.00 399.69,295.00
            396.56,286.21 393.43,272.27 392.29,263.00
            391.25,254.63 392.96,249.79 393.00,242.00
            393.05,232.68 394.53,222.23 396.08,213.00
            397.45,204.87 399.61,195.35 403.37,188.00
            404.56,185.68 407.24,181.04 410.04,180.62
            412.35,180.27 417.65,184.63 420.00,186.00
            420.00,186.00 419.00,167.00 419.00,167.00
            418.97,147.81 412.00,120.11 401.56,104.00
            398.09,98.65 393.48,94.48 389.00,90.00
            389.00,90.00 412.00,88.00 412.00,88.00 Z
         M 246.00,117.00
         C 246.00,117.00 259.00,108.70 259.00,108.70
            259.00,108.70 269.00,107.38 269.00,107.38
            269.00,107.38 279.00,106.00 279.00,106.00
            279.00,106.00 264.00,118.11 264.00,118.11
            264.00,118.11 254.00,119.00 254.00,119.00
            254.00,119.00 246.00,117.00 246.00,117.00 Z
         M 242.00,238.00
         C 218.26,236.89 204.74,220.48 191.63,203.00
            191.63,203.00 174.37,180.00 174.37,180.00
            174.37,180.00 161.42,163.00 161.42,163.00
            159.28,160.25 157.13,156.93 153.96,155.31
            151.28,153.95 141.30,153.04 138.00,153.00
            138.00,153.00 121.00,153.91 121.00,153.91
            116.99,154.19 113.84,153.48 110.00,155.00
            116.05,159.35 117.38,161.76 121.00,168.00
            121.00,168.00 115.00,170.00 115.00,170.00
            118.71,180.90 126.46,178.67 121.00,189.00
            125.54,194.96 126.65,197.52 127.00,205.00
            133.10,204.98 139.29,203.14 145.00,206.00
            152.04,209.52 156.78,217.34 160.57,224.00
            167.87,236.82 177.99,270.13 180.00,285.00
            180.00,285.00 214.00,288.09 214.00,288.09
            214.00,288.09 225.00,289.00 225.00,289.00
            225.00,289.00 229.75,262.00 229.75,262.00
            229.75,262.00 242.00,238.00 242.00,238.00 Z
         M 565.00,273.00
         C 565.00,273.00 564.00,273.00 564.00,273.00
            564.00,273.00 565.00,274.00 565.00,274.00
            565.00,274.00 565.00,273.00 565.00,273.00 Z
         M 406.00,309.00
         C 406.00,309.00 405.00,309.00 405.00,309.00
            405.00,309.00 406.00,310.00 406.00,310.00
            406.00,310.00 406.00,309.00 406.00,309.00 Z
         M 341.00,502.00
         C 333.52,500.65 315.30,498.58 317.46,487.00
            319.77,474.65 342.61,469.54 346.55,462.79
            349.55,457.65 346.90,449.17 344.94,444.00
            335.42,418.92 318.30,407.89 294.00,399.05
            285.39,395.93 271.86,392.73 263.00,395.97
            253.33,399.50 242.95,414.69 239.01,424.00
            236.01,431.10 234.09,437.22 234.00,445.00
            233.79,462.87 235.78,472.29 246.90,487.00
            253.43,495.64 258.02,499.82 266.00,506.85
            270.76,511.03 276.10,514.86 278.22,521.00
            280.79,527.17 278.88,537.36 278.22,544.00
            278.22,544.00 254.00,542.04 254.00,542.04
            254.00,542.04 240.00,542.04 240.00,542.04
            240.00,542.04 232.63,542.99 232.63,542.99
            232.63,542.99 225.42,554.00 225.42,554.00
            225.42,554.00 211.00,580.00 211.00,580.00
            215.02,579.47 223.50,577.58 227.00,578.30
            230.59,579.05 232.40,581.34 236.00,581.68
            239.85,582.05 243.92,579.43 247.00,579.63
            250.21,579.84 251.70,582.11 255.00,582.39
            257.53,582.61 262.15,580.79 265.00,580.16
            265.00,580.16 278.00,580.16 278.00,580.16
            284.31,580.08 292.76,581.23 298.59,577.60
            300.87,576.17 302.11,572.43 303.15,570.00
            303.15,570.00 311.28,551.00 311.28,551.00
            311.28,551.00 341.00,502.00 341.00,502.00 Z" />
</svg>
